<svg xmlns="http://www.w3.org/2000/svg" viewBox="0 0 576 512" width="576" height="512">
	<style>
		tspan { white-space:pre }
		.shp0 { fill: #000000;stroke: #ffffff;paint-order:stroke fill markers;stroke-width: 50 } 
	</style>
	<path id="Layer" class="shp0" d="M327.79 111.34L100.38 112.87C79.56 113.01 62.8 130 62.94 150.81L64.47 378.23C64.61 399.04 81.6 415.81 102.42 415.67L329.83 414.14C350.64 414 367.41 397.01 367.27 376.19L365.74 148.78C365.6 127.96 348.61 111.2 327.79 111.34L327.79 111.34ZM477.34 140.06L391.32 200.25L392.16 324.37L478.98 383.33C495.77 394.73 518.72 382.82 518.58 362.72L517.22 160.14C517.08 140.11 494.05 128.44 477.34 140.07L477.34 140.06Z" />
</svg>