<svg xmlns="http://www.w3.org/2000/svg" viewBox="0 0 576 512" width="576" height="512">
	<style>
		tspan { white-space:pre }
		.shp0 { fill: #000000;stroke: #ffffff;paint-order:stroke fill markers;stroke-width: 50 } 
	</style>
	<path id="Layer" class="shp0" d="M136.37 220.1L137.9 447.51C138.04 468.32 155.03 485.09 175.85 484.95L403.26 483.42C424.08 483.28 440.85 466.29 440.71 445.47L439.18 218.06C439.04 197.24 422.04 180.48 401.23 180.62L173.82 182.15C153 182.29 136.23 199.28 136.37 220.1L136.37 220.1ZM165.1 70.54L225.29 156.57L349.41 155.73L408.36 68.91C419.76 52.11 407.86 29.16 387.75 29.3L185.18 30.67C165.15 30.81 153.47 53.83 165.11 70.55L165.1 70.54Z" />
</svg>