<svg xmlns="http://www.w3.org/2000/svg" viewBox="0 0 576 512" width="576" height="512">
	<style>
		tspan { white-space:pre }
		.shp0 { fill: #000000;stroke: #ffffff;paint-order:stroke fill markers;stroke-width: 50 } 
	</style>
	<path id="Layer" class="shp0" d="M218.91 126.23L70.12 277.03C56.5 290.84 56.65 313.07 70.45 326.69L221.26 475.49C235.07 489.11 257.3 488.96 270.92 475.15L419.71 324.34C433.33 310.54 433.18 288.31 419.38 274.68L268.58 125.89C254.77 112.27 232.53 112.42 218.91 126.23L218.91 126.23ZM336.35 46.64L319.33 142.95L401.64 224.15L497.67 205.8C516.23 202.24 523.51 179.29 510.18 166.14L375.84 33.59C362.55 20.5 339.69 27.97 336.35 46.65L336.35 46.64Z" />
</svg>