<svg xmlns="http://www.w3.org/2000/svg" viewBox="0 0 576 512" width="576" height="512">
	<style>
		tspan { white-space:pre }
		.shp0 { fill: #000000;stroke: #ffffff;paint-order:stroke fill markers;stroke-width: 50 } 
	</style>
	<path id="Layer" class="shp0" d="M158.34 326.43L309.31 475.38C323.13 489.02 345.39 488.87 359.02 475.05L507.99 324.08C521.62 310.26 521.47 288 507.65 274.36L356.67 125.41C342.86 111.76 320.6 111.91 306.96 125.73L158 276.71C144.37 290.53 144.52 312.79 158.34 326.43L158.34 326.43ZM78.66 208.86L175.08 225.89L256.37 143.49L238 47.37C234.44 28.77 211.46 21.49 198.29 34.83L65.6 169.32C52.49 182.63 59.98 205.51 78.67 208.86L78.66 208.86Z" />
</svg>