<svg xmlns="http://www.w3.org/2000/svg" viewBox="0 0 576 512" width="576" height="512">
	<style>
		tspan { white-space:pre }
		.shp0 { fill: #000000;stroke: #ffffff;paint-order:stroke fill markers;stroke-width: 50 } 
	</style>
	<path id="Layer" class="shp0" d="M439.96 302.98L438.43 75.57C438.29 54.76 421.3 37.99 400.48 38.13L173.07 39.66C152.25 39.8 135.48 56.79 135.63 77.61L137.15 305.02C137.29 325.84 154.29 342.6 175.1 342.46L402.51 340.93C423.33 340.79 440.1 323.8 439.96 302.98L439.96 302.98ZM411.23 452.54L351.04 366.51L226.92 367.35L167.97 454.17C156.57 470.96 168.47 493.92 188.58 493.78L391.15 492.41C411.18 492.27 422.86 469.25 411.22 452.53L411.23 452.54Z" />
</svg>