<svg xmlns="http://www.w3.org/2000/svg" viewBox="0 0 576 512" width="576" height="512">
	<style>
		tspan { white-space:pre }
		.shp0 { fill: #000000;stroke: #ffffff;paint-order:stroke fill markers;stroke-width: 50 } 
	</style>
	<path id="Layer" class="shp0" d="M418.84 186.57L267.42 37.16C253.56 23.48 231.23 23.63 217.56 37.5L68.16 188.92C54.48 202.79 54.63 225.11 68.5 238.79L219.91 388.19C233.78 401.86 256.11 401.71 269.78 387.85L419.18 236.43C432.86 222.57 432.71 200.24 418.84 186.57L418.84 186.57ZM498.76 304.48L402.05 287.39L320.52 370.04L338.95 466.46C342.52 485.1 365.57 492.41 378.77 479.02L511.86 344.13C525.02 330.79 517.51 307.84 498.75 304.48L498.76 304.48Z" />
</svg>