<svg xmlns="http://www.w3.org/2000/svg" viewBox="0 0 576 512" width="576" height="512">
	<style>
		tspan { white-space:pre }
		.shp0 { fill: #000000;stroke: #ffffff;paint-order:stroke fill markers;stroke-width: 50 } 
	</style>
	<path id="Layer" class="shp0" d="M356.98 384.42L503.72 235.7C517.15 222.08 517 200.15 503.39 186.72L354.67 39.98C341.05 26.55 319.12 26.69 305.69 40.31L158.95 189.04C145.51 202.64 145.66 224.57 159.28 238.01L308.01 384.75C321.62 398.18 343.55 398.03 356.98 384.42L356.98 384.42ZM241.17 462.91L257.94 367.93L176.77 287.84L82.08 305.94C63.76 309.45 56.58 332.09 69.73 345.06L202.22 475.78C215.33 488.69 237.86 481.32 241.17 462.9L241.17 462.91Z" />
</svg>