<svg xmlns="http://www.w3.org/2000/svg" viewBox="0 0 576 512" width="576" height="512">
	<style>
		tspan { white-space:pre }
		.shp0 { fill: #000000;stroke: #ffffff;paint-order:stroke fill markers;stroke-width: 50 } 
	</style>
	<path id="Layer" class="shp0" d="M248.82 411.25L476.24 409.72C497.05 409.58 513.82 392.59 513.68 371.77L512.15 144.36C512.01 123.54 495.02 106.78 474.2 106.92L246.79 108.45C225.97 108.59 209.21 125.58 209.35 146.4L210.88 373.81C211.02 394.62 228.01 411.39 248.82 411.25L248.82 411.25ZM99.27 382.52L185.29 322.33L184.46 198.21L97.64 139.26C80.84 127.86 57.89 139.77 58.03 159.87L59.4 362.45C59.54 382.48 82.56 394.15 99.28 382.52L99.27 382.52Z" />
</svg>